# xmcd
#
# Track frame offsets:
#	150
#	20155
#	35990
#	48683
#	64810
#	80763
#	97520
#	112964
#	131692
#	149787
#	164782
#	179945
#	195563
#	211427
#	224921
#	243236
#
# Disc length: 3467 seconds
#
# Revision: 0
# Processed by: cddbd v1.5.1PL0 Copyright (c) Steve Scherf et al.
# Submitted via: dBpowerAMP V4.0
#
DISCID=0b0d8910
DTITLE=聖經-舊約 - Disc 45
DYEAR=1900
DGENRE=
TTITLE0=箴言第16章
TTITLE1=箴言第17章
TTITLE2=箴言第18章
TTITLE3=箴言第19章
TTITLE4=箴言第20章
TTITLE5=箴言第21章
TTITLE6=箴言第22章
TTITLE7=箴言第23章
TTITLE8=箴言第24章
TTITLE9=箴言第25章
TTITLE10=箴言第26章
TTITLE11=箴言第27章
TTITLE12=箴言第28章
TTITLE13=箴言第29章
TTITLE14=箴言第30章
TTITLE15=箴言第31章
EXTD=
EXTT0=
EXTT1=
EXTT2=
EXTT3=
EXTT4=
EXTT5=
EXTT6=
EXTT7=
EXTT8=
EXTT9=
EXTT10=
EXTT11=
EXTT12=
EXTT13=
EXTT14=
EXTT15=
PLAYORDER=
